<svg width="943" height="871" viewBox="0 0 943 871" fill="none" xmlns="http://www.w3.org/2000/svg">
<g filter="url(#filter0_d)">
<path fill-rule="evenodd" clip-rule="evenodd" d="M595.85 732.87C525.627 731.246 477.701 663.654 409.926 645.216C329.159 623.243 231.601 668.951 166.691 616.117C98.0874 560.278 55.1006 459.489 76.2144 373.592C97.1092 288.585 200.14 259 268.053 203.747C319.048 162.257 360.658 109.088 423.806 90.7927C487.794 72.254 556.878 76.774 618.433 102.235C678.932 127.259 719.833 179.331 760.968 230.253C807.204 287.489 860.236 342.451 871.244 415.197C883.719 497.629 879.839 591.812 825.219 654.818C770.994 717.367 678.614 734.783 595.85 732.87Z" fill="url(#paint0_radial)"/>
</g>
<defs>
<filter id="filter0_d" x="0.953369" y="0.3088" width="941.093" height="870.382" filterUnits="userSpaceOnUse" color-interpolation-filters="sRGB">
<feFlood flood-opacity="0" result="BackgroundImageFix"/>
<feColorMatrix in="SourceAlpha" type="matrix" values="0 0 0 0 0 0 0 0 0 0 0 0 0 0 0 0 0 0 127 0"/>
<feOffset dy="4"/>
<feGaussianBlur stdDeviation="2"/>
<feColorMatrix type="matrix" values="0 0 0 0 0 0 0 0 0 0 0 0 0 0 0 0 0 0 0.25 0"/>
<feBlend mode="normal" in2="BackgroundImageFix" result="effect1_dropShadow"/>
<feBlend mode="normal" in="SourceGraphic" in2="effect1_dropShadow" result="shape"/>
</filter>
<radialGradient id="paint0_radial" cx="0" cy="0" r="1" gradientUnits="userSpaceOnUse" gradientTransform="translate(471.5 431.5) rotate(-105) scale(341.5 391.5)">
<stop stop-color="#16FFC7"/>
<stop offset="1" stop-color="#7F89E2"/>
</radialGradient>
</defs>
</svg>
